<svg width="16" height="19" viewBox="0 0 16 19" fill="none" xmlns="http://www.w3.org/2000/svg">
<path d="M9.54133 18.0587C11.8653 16.0133 16 11.8347 16 8C16 5.87827 15.1571 3.84344 13.6569 2.34315C12.1566 0.842855 10.1217 0 8 0C5.87827 0 3.84344 0.842855 2.34315 2.34315C0.842855 3.84344 3.16163e-08 5.87827 0 8C0 11.8347 4.13333 16.0133 6.45867 18.0587C6.88282 18.4373 7.43147 18.6465 8 18.6465C8.56853 18.6465 9.11718 18.4373 9.54133 18.0587ZM5.33333 8C5.33333 7.29276 5.61428 6.61448 6.11438 6.11438C6.61448 5.61428 7.29276 5.33333 8 5.33333C8.70724 5.33333 9.38552 5.61428 9.88562 6.11438C10.3857 6.61448 10.6667 7.29276 10.6667 8C10.6667 8.70724 10.3857 9.38552 9.88562 9.88562C9.38552 10.3857 8.70724 10.6667 8 10.6667C7.29276 10.6667 6.61448 10.3857 6.11438 9.88562C5.61428 9.38552 5.33333 8.70724 5.33333 8Z" fill="#F9F7F6"/>
</svg>
