<svg width="229" height="166" viewBox="0 0 229 166" fill="none" xmlns="http://www.w3.org/2000/svg">
<circle cx="126.436" cy="85.9199" r="16.5" transform="rotate(-17.8098 126.436 85.9199)" fill="#ADBCFF"/>
<circle cx="185.593" cy="125.709" r="16.5" transform="rotate(-107.81 185.593 125.709)" fill="#DAE1FF"/>
<path fill-rule="evenodd" clip-rule="evenodd" d="M76.6296 56.7558C79.4168 65.4318 74.643 74.7246 65.967 77.5118C57.291 80.299 47.9982 75.5251 45.2111 66.8492C44.6212 65.0131 44.37 63.1494 44.4227 61.3256L21.6311 68.6475C16.3729 70.3367 13.4797 75.9686 15.1689 81.2268L39.0258 155.489C40.715 160.747 46.347 163.64 51.6052 161.951L73.8571 154.803C73.2801 153.803 72.7998 152.727 72.4324 151.584C69.6453 142.908 74.4191 133.615 83.0951 130.828C91.771 128.041 101.064 132.815 103.851 141.491C104.218 142.634 104.454 143.788 104.567 144.937L125.867 138.094C131.125 136.405 134.019 130.773 132.329 125.515L108.472 51.2527C106.783 45.9945 101.151 43.1013 95.8931 44.7905L74.0535 51.8066C75.1585 53.2584 76.0397 54.9198 76.6296 56.7558Z" fill="#ADBCFF"/>
<path fill-rule="evenodd" clip-rule="evenodd" d="M120.437 70.5149C129.113 67.7277 138.406 72.5015 141.193 81.1775C143.98 89.8535 139.207 99.1462 130.531 101.933C128.695 102.523 126.831 102.774 125.007 102.722L132.329 125.513C134.018 130.772 139.65 133.665 144.908 131.976L219.17 108.119C224.428 106.429 227.322 100.797 225.632 95.5393L218.484 73.2874C217.484 73.8644 216.409 74.3447 215.265 74.712C206.589 77.4992 197.297 72.7254 194.51 64.0494C191.722 55.3734 196.496 46.0807 205.172 43.2935C206.316 42.9262 207.47 42.6902 208.618 42.5771L201.776 21.2773C200.086 16.0191 194.454 13.1259 189.196 14.8151L114.934 38.672C109.676 40.3613 106.783 45.9932 108.472 51.2514L115.488 73.091C116.94 71.9859 118.601 71.1047 120.437 70.5149Z" fill="#DAE1FF"/>
<circle cx="20.7559" cy="119.87" r="16.5" transform="rotate(-17.8098 20.7559 119.87)" fill="#ADBCFF"/>
<circle cx="149.457" cy="20.7558" r="16.5" transform="rotate(-107.81 149.457 20.7558)" fill="#DAE1FF"/>
</svg>
