<svg width="231" height="240" viewBox="0 0 231 240" fill="none" xmlns="http://www.w3.org/2000/svg">
<path fill-rule="evenodd" clip-rule="evenodd" d="M88.931 14.8175L4.9057 35.38C2.22342 36.0364 0.581129 38.7429 1.23753 41.4252L48.5405 234.721C49.1969 237.404 51.9034 239.046 54.5857 238.39L194.458 204.16C197.141 203.504 198.783 200.797 198.127 198.115L153.27 14.8175L88.931 14.8175Z" fill="#E9E9E9"/>
<line x1="45.5366" y1="122.009" x2="81.9509" y2="113.121" stroke="#1E3B57" stroke-width="2"/>
<line x1="49.2679" y1="135.338" x2="85.6822" y2="126.45" stroke="#1E3B57"/>
<line x1="51.9413" y1="147.855" x2="88.3556" y2="138.967" stroke="#1E3B57"/>
<line x1="54.5245" y1="158.547" x2="90.9388" y2="149.659" stroke="#1E3B57"/>
<line x1="62.3126" y1="190.783" x2="166.338" y2="165.392" stroke="black"/>
<rect x="26.4409" y="53.1223" width="55" height="54" rx="3" transform="rotate(-13.6756 26.4409 53.1223)" fill="#ADBCFF"/>
<path d="M48.3271 75.7655C47.6647 72.8055 49.5272 69.869 52.4871 69.2066L66.1648 66.1457C69.1247 65.4833 72.0612 67.3459 72.7236 70.3058L73.7918 75.0792C75.2995 81.8161 71.0603 88.4996 64.3234 90.0073C57.5865 91.5149 50.9029 87.2757 49.3953 80.5388L48.3271 75.7655Z" fill="#DAE1FF"/>
<ellipse cx="64.5979" cy="75.2066" rx="1" ry="1.5" transform="rotate(-12.6142 64.5979 75.2066)" fill="#1E3B57"/>
<ellipse cx="57.7671" cy="76.7354" rx="1" ry="1.5" transform="rotate(-12.6142 57.7671 76.7354)" fill="#1E3B57"/>
<path d="M60.1624 82.8601C62.7543 83.7133 64.0074 83.2973 66.0175 81.5498" stroke="#1E3B57" stroke-linecap="round"/>
<path d="M47.8549 59.9173C47.0199 56.1861 49.3678 52.4845 53.099 51.6495L59.1043 50.3056C62.8355 49.4706 66.5372 51.8184 67.3722 55.5496C68.3463 59.9027 65.6072 64.2213 61.2541 65.1955L57.5008 66.0354C53.1477 67.0096 48.8291 64.2704 47.8549 59.9173Z" fill="#1E3B57"/>
<path d="M47.0255 74.5281C45.94 69.6775 48.9922 64.8654 53.8428 63.7799L60.6739 62.2512C61.7594 67.1018 58.7072 71.9139 53.8566 72.9994L47.0255 74.5281Z" fill="#1E3B57"/>
<path d="M73.3742 68.6312C72.2887 63.7806 67.4765 60.7284 62.6259 61.8139L55.7949 63.3426C56.8804 68.1931 61.6925 71.2454 66.5431 70.1599L73.3742 68.6312Z" fill="#1E3B57"/>
<line x1="64.858" y1="201.319" x2="102.232" y2="192.197" stroke="black"/>
<rect x="76.9424" y="6.81763" width="154" height="209" rx="5" fill="#F9F7F6"/>
<rect x="98.9424" y="27.8176" width="55" height="54" rx="3" fill="#ADBCFF"/>
<circle cx="125.942" cy="51.8176" r="16" fill="#1E3B57"/>
<path d="M112.942 52.8176C112.942 49.5039 115.629 46.8176 118.942 46.8176H131.942C135.256 46.8176 137.942 49.5039 137.942 52.8176V60.3176C137.942 67.2212 132.346 72.8176 125.442 72.8176C118.539 72.8176 112.942 67.2212 112.942 60.3176V52.8176Z" fill="#DAE1FF"/>
<ellipse cx="128.942" cy="55.3176" rx="1" ry="1.5" fill="#1E3B57"/>
<ellipse cx="121.942" cy="55.3176" rx="1" ry="1.5" fill="#1E3B57"/>
<path d="M122.942 61.8176C125.285 63.2163 126.599 63.084 128.942 61.8176" stroke="#1E3B57" stroke-linecap="round"/>
<line x1="165.942" y1="34.8176" x2="216.942" y2="34.8176" stroke="#1E3B57" stroke-width="2"/>
<line x1="98.9424" y1="101.818" x2="149.942" y2="101.818" stroke="#1E3B57" stroke-width="2"/>
<line x1="165.942" y1="45.8176" x2="199.942" y2="45.8176" stroke="#1E3B57" stroke-width="2"/>
<line x1="98.9424" y1="115.318" x2="182.942" y2="115.318" stroke="black"/>
<line x1="98.9424" y1="127.318" x2="206.961" y2="127.318" stroke="black"/>
<line x1="98.9424" y1="139.318" x2="206.961" y2="139.318" stroke="black"/>
<line x1="98.9397" y1="150.818" x2="194.945" y2="150.818" stroke="black"/>
<line x1="98.8889" y1="171.818" x2="140.996" y2="171.818" stroke="black"/>
<circle cx="126.442" cy="55.3176" r="42.5" stroke="#1E3B57" stroke-width="6"/>
<path d="M210.942 114.818C212.321 115.737 214.184 115.364 215.103 113.986C216.022 112.607 215.649 110.744 214.271 109.825L210.942 114.818ZM159.942 80.8177L210.942 114.818L214.271 109.825L163.271 75.8254L159.942 80.8177Z" fill="#1E3B57"/>
</svg>
